# xmcd
#
# Track frame offsets: 
#        150
#        13005
#        24578
#        37468
#        49155
#        62114
#        74282
#        88183
#        98089
#        109966
#        122212
#        133032
#        144419
#        155052
#        167449
#
# Disc length: 2406 seconds
#
# Revision: 0
# Processed by: cddbd v1.5.2PL0 Copyright (c) Steve Scherf et al.
# Submitted via: ExactAudioCopy v1.3
#
DISCID=da09640f
DTITLE=Various Artist - Simply Country - CD5
DYEAR=2012
DGENRE=Country
TTITLE0=Freddy Fender - Almost Persuaded
TTITLE1=Hank Williams - Baby, We're Really In Love
TTITLE2=Ernest Tubb - Have You Ever Been Lonely? (Have You Ever Been B
TTITLE2=lue?)
TTITLE3=Eddy Arnold - BouQet Of Roses
TTITLE4=Jim Reeves - Hav I Told You Lately That I Love You?
TTITLE5=David Allan Coe - Mississippi Woman
TTITLE6=Jerry Lee Lewis - I Love You Because
TTITLE7=Willie Nelson - Healing Hands Of Time
TTITLE8=Waylon Jennings -  Crying
TTITLE9=Roy Acuff and His Smokey Mountain Boys - Blue Eyes Crying In The
TTITLE9=Rain
TTITLE10=Don Williams and Pozo Seco Singers - Spend Some Time With Me
TTITLE11=Conway Twitty - Broken Heart
TTITLE12=Carl Perkins - Sweethearts Or Strangers
TTITLE13=Hank Snow - I'm Movin' On
TTITLE14=Kenny Rogers - Ruby, Don't Take Your Love To Town
EXTD=
EXTT0=
EXTT1=
EXTT2=
EXTT3=
EXTT4=
EXTT5=
EXTT6=
EXTT7=
EXTT8=
EXTT9=
EXTT10=
EXTT11=
EXTT12=
EXTT13=
EXTT14=
PLAYORDER=
